<?xml version="1.0" standalone="no"?>
<!DOCTYPE svg PUBLIC "-//W3C//DTD SVG 20010904//EN"
 "http://www.w3.org/TR/2001/REC-SVG-20010904/DTD/svg10.dtd">
<svg version="1.0" xmlns="http://www.w3.org/2000/svg"
 width="408.000000pt" height="408.000000pt" viewBox="0 0 408.000000 408.000000"
 preserveAspectRatio="xMidYMid meet">
<metadata>
Created by potrace 1.14, written by Peter Selinger 2001-2017
</metadata>
<g transform="translate(0.000000,408.000000) scale(0.100000,-0.100000)"
fill="#000000" stroke="none">
<path d="M3816 4071 c8 -8 28 -12 157 -27 26 -3 47 -10 47 -15 0 -5 -4 -9 -10
-9 -5 0 -10 -9 -10 -20 0 -15 -9 -22 -31 -27 -18 -3 -34 -14 -36 -24 -3 -9
-16 -20 -29 -23 -26 -7 -33 -26 -9 -26 14 0 55 -34 55 -45 0 -3 -8 -5 -17 -5
-17 -1 -17 -1 0 -14 9 -7 17 -16 17 -20 0 -3 -8 -6 -17 -6 -16 -1 -16 -2 -3
-13 16 -13 23 -47 9 -47 -10 0 43 -89 54 -90 4 0 7 7 7 15 0 15 16 20 58 16
l22 -2 0 170 c0 153 -2 170 -17 174 -17 4 -17 5 0 6 10 1 17 9 17 21 0 19 -7
20 -137 20 -82 0 -133 -4 -127 -9z m154 -161 c0 -5 -7 -10 -15 -10 -8 0 -15 5
-15 10 0 6 7 10 15 10 8 0 15 -4 15 -10z"/>
<path d="M1973 3903 c4 -3 2 -12 -3 -18 -7 -9 -6 -16 5 -25 8 -7 15 -19 15
-26 0 -8 6 -14 14 -14 8 0 21 -3 30 -6 28 -11 18 21 -19 59 -20 21 -39 37 -42
37 -4 0 -3 -3 0 -7z"/>
<path d="M1535 3870 c3 -5 15 -10 26 -10 10 0 19 5 19 10 0 6 -12 10 -26 10
-14 0 -23 -4 -19 -10z"/>
<path d="M3788 3873 c7 -3 16 -2 19 1 4 3 -2 6 -13 5 -11 0 -14 -3 -6 -6z"/>
<path d="M1818 3863 c7 -3 16 -2 19 1 4 3 -2 6 -13 5 -11 0 -14 -3 -6 -6z"/>
<path d="M1850 3860 c0 -5 7 -10 16 -10 8 0 12 5 9 10 -3 6 -10 10 -16 10 -5
0 -9 -4 -9 -10z"/>
<path d="M2074 3852 c-6 -4 -15 -26 -21 -50 -10 -37 -9 -44 7 -55 11 -7 21
-32 25 -59 7 -45 7 -45 -24 -50 -25 -4 -44 5 -98 44 -60 42 -93 58 -93 43 0
-2 9 -20 20 -40 l20 -36 -26 -9 c-14 -6 -30 -7 -35 -4 -6 3 -16 0 -24 -6 -8
-6 -19 -9 -25 -5 -6 3 -10 -3 -10 -15 0 -21 -1 -20 -43 4 -48 29 -117 44 -117
26 0 -7 -8 -9 -22 -4 -34 11 -71 6 -84 -11 -6 -8 -33 -24 -60 -36 -65 -29 -79
-40 -62 -50 7 -5 21 -9 31 -9 10 0 28 -11 41 -25 22 -23 26 -24 87 -16 55 8
179 44 244 71 11 5 42 18 68 29 70 30 159 9 187 -44 9 -17 21 -25 34 -23 17 2
21 10 21 45 0 23 3 44 7 48 4 4 4 14 1 23 -5 10 -3 13 6 8 7 -5 10 -14 7 -22
-3 -8 1 -17 8 -20 22 -8 16 -58 -9 -90 l-23 -28 39 -77 c37 -74 40 -77 67 -70
20 5 33 20 50 56 23 47 23 50 8 98 -9 27 -16 67 -16 88 0 32 -5 41 -25 51 -27
12 -32 24 -14 30 17 6 2 42 -37 89 -19 22 -34 38 -34 33 0 -4 -9 1 -20 11 -10
9 -18 27 -17 38 2 22 -20 33 -39 19z m126 -292 c0 -5 -2 -10 -4 -10 -3 0 -8 5
-11 10 -3 6 -1 10 4 10 6 0 11 -4 11 -10z m-10 -60 c0 -5 -4 -10 -10 -10 -5 0
-10 5 -10 10 0 6 5 10 10 10 6 0 10 -4 10 -10z"/>
<path d="M1678 3833 c7 -3 16 -2 19 1 4 3 -2 6 -13 5 -11 0 -14 -3 -6 -6z"/>
<path d="M1320 3800 c-12 -8 -12 -10 5 -10 11 0 27 5 35 10 12 8 12 10 -5 10
-11 0 -27 -5 -35 -10z"/>
<path d="M1500 3800 c-8 -5 -37 -10 -65 -11 l-50 -1 38 -9 c43 -10 141 1 139
16 -2 14 -44 17 -62 5z"/>
<path d="M1731 3704 c19 -14 43 -30 54 -36 20 -11 20 -11 0 12 -19 21 -66 50
-81 50 -5 0 8 -12 27 -26z"/>
<path d="M1356 3671 c-16 -3 -31 -11 -33 -17 -5 -15 65 -16 92 -1 19 10 19 10
0 18 -23 9 -21 9 -59 0z"/>
<path d="M4067 3243 c-4 -3 -7 -14 -7 -24 0 -10 -9 -21 -20 -24 l-21 -7 21
-34 c26 -45 26 -74 1 -74 -11 0 -22 4 -25 8 -7 12 -64 4 -105 -15 -22 -10 -47
-13 -72 -9 -24 4 -39 2 -39 -4 0 -5 5 -10 11 -10 6 0 1 -16 -11 -37 l-21 -36
28 -24 c18 -15 35 -21 48 -17 11 4 50 8 86 9 36 1 83 8 103 15 l36 12 0 139
c0 76 -1 139 -3 139 -2 0 -7 -3 -10 -7z"/>
<path d="M1351 3089 c-13 -5 -21 -15 -18 -23 4 -9 -8 -19 -34 -29 -21 -8 -39
-20 -39 -26 0 -17 74 -18 87 -1 10 13 13 12 19 -5 4 -11 14 -25 22 -31 8 -6
12 -16 8 -22 -9 -14 23 -20 54 -10 31 11 69 56 70 83 0 13 -15 30 -44 48 -44
28 -83 33 -125 16z"/>
<path d="M1735 3091 c-45 -9 -85 -40 -85 -66 0 -27 26 -51 52 -47 11 2 18 -3
18 -13 0 -20 58 -45 105 -45 38 0 47 14 15 23 -11 3 -20 10 -20 15 0 14 37 22
112 22 37 0 70 5 73 10 10 16 -34 47 -82 59 -24 6 -42 16 -40 23 4 22 -80 33
-148 19z"/>
<path d="M2327 3064 c-8 -8 3 -34 14 -34 11 0 12 27 0 34 -4 3 -11 3 -14 0z"/>
<path d="M2246 2925 c4 -8 8 -15 10 -15 2 0 4 7 4 15 0 8 -4 15 -10 15 -5 0
-7 -7 -4 -15z"/>
<path d="M3680 2811 c0 -5 -26 -13 -57 -17 -60 -7 -107 -29 -97 -45 3 -5 1 -9
-5 -9 -5 0 -11 6 -14 13 -9 25 -25 -9 -29 -62 -3 -58 -6 -55 65 -85 42 -18
128 -21 158 -6 27 15 49 63 49 107 0 31 -8 47 -35 76 -19 20 -35 33 -35 28z"/>
<path d="M1609 2692 c-8 -10 -24 -22 -37 -26 -39 -13 -23 -41 24 -44 35 -3 42
0 47 18 4 16 11 19 29 15 16 -4 32 0 48 13 l24 19 -40 7 c-21 4 -49 10 -60 12
-14 4 -26 -1 -35 -14z"/>
<path d="M1470 2691 c0 -11 26 -22 34 -14 3 3 3 10 0 14 -7 12 -34 11 -34 0z"/>
<path d="M1317 2663 c-43 -33 -47 -65 -17 -115 18 -29 20 -30 20 -10 0 32 10
28 59 -22 26 -27 55 -46 72 -48 20 -3 26 -1 19 6 -5 5 -10 23 -10 39 0 24 3
27 20 22 11 -4 20 -2 20 4 0 6 -17 11 -38 11 -57 0 -142 28 -142 46 0 8 11 30
25 48 41 54 29 62 -28 19z"/>
<path d="M1856 2658 c4 -7 16 -25 26 -40 l19 -27 -67 -20 c-44 -14 -95 -21
-153 -22 -104 0 -177 -12 -146 -23 11 -4 30 -12 43 -17 13 -5 27 -7 31 -5 3 2
39 7 79 11 61 5 72 4 72 -10 0 -8 -11 -20 -25 -25 -23 -9 -35 -30 -17 -30 29
0 106 36 141 67 25 21 48 33 57 29 37 -14 24 50 -19 97 -26 27 -54 38 -41 15z"/>
<path d="M1655 2450 c-3 -6 1 -7 9 -4 18 7 21 14 7 14 -6 0 -13 -4 -16 -10z"/>
<path d="M1585 2440 c-3 -5 1 -10 9 -10 9 0 16 5 16 10 0 6 -4 10 -9 10 -6 0
-13 -4 -16 -10z"/>
<path d="M1586 2381 c-5 -8 84 -3 93 5 2 2 -16 4 -42 4 -25 0 -48 -4 -51 -9z"/>
<path d="M2381 2281 c-8 -5 -53 -13 -99 -17 l-84 -7 -61 -57 c-34 -31 -75 -68
-91 -81 -17 -13 -41 -35 -55 -48 -15 -15 -26 -20 -29 -13 -2 7 -8 12 -14 12
-5 0 -6 -9 -2 -22 l6 -21 -37 21 c-20 12 -41 19 -47 16 -6 -4 -5 -10 3 -15 11
-6 11 -11 2 -20 -6 -6 -9 -17 -7 -24 3 -8 -9 -18 -31 -25 -20 -7 -39 -18 -42
-26 -3 -8 -11 -14 -19 -14 -8 0 -14 -6 -14 -14 0 -10 7 -12 21 -9 20 6 21 3
15 -23 -4 -16 -10 -32 -14 -35 -4 -3 -50 -2 -102 2 -61 5 -96 5 -98 -2 -2 -5
-17 -16 -33 -24 l-29 -16 0 44 c0 39 -27 127 -81 264 -20 49 -23 52 -54 50
-42 -3 -50 -11 -35 -34 9 -16 10 -15 4 7 l-6 25 24 -22 c43 -41 62 -142 55
-305 -5 -121 -4 -140 10 -145 14 -5 14 -8 1 -17 -33 -25 -54 -142 -47 -274 1
-25 -31 -56 -44 -43 -4 4 -9 18 -10 30 -1 11 -5 21 -10 21 -5 0 -6 -22 -2 -50
6 -42 2 -62 -25 -132 -18 -46 -38 -103 -46 -128 -12 -41 -19 -151 -12 -192 2
-9 0 -16 -3 -15 -3 1 -13 -4 -22 -12 -18 -14 -24 -91 -8 -91 4 0 6 -12 3 -28
-5 -24 -3 -25 10 -14 14 11 25 36 68 147 4 11 32 72 63 135 58 121 87 193 87
223 0 23 29 67 44 67 7 0 13 7 13 15 0 8 -7 15 -15 15 -11 0 -13 7 -7 33 4 17
7 47 6 65 0 18 4 42 9 53 11 19 11 19 41 -1 29 -22 39 -55 17 -62 -6 -2 -8
-10 -4 -16 5 -8 16 -2 34 20 15 18 29 35 33 38 3 3 10 12 15 21 5 9 26 35 47
58 33 37 42 41 68 36 36 -8 37 -27 2 -50 -35 -22 -93 -82 -93 -95 0 -6 -21
-31 -46 -55 -25 -25 -41 -45 -35 -45 6 0 11 4 11 8 0 4 16 6 35 4 23 -3 43 2
64 17 16 12 32 21 35 21 6 0 57 51 87 87 9 11 29 44 45 74 16 30 31 56 35 59
3 3 19 26 37 51 43 63 130 148 169 165 37 16 87 20 64 5 -7 -5 -10 -14 -6 -20
5 -8 15 -4 32 14 14 14 29 25 34 25 4 0 30 14 57 31 38 23 71 33 148 44 165
24 158 25 286 -65 62 -44 129 -98 149 -120 57 -62 102 -209 129 -425 22 -166
26 -191 38 -212 7 -13 20 -23 30 -24 179 -5 260 -11 296 -19 24 -5 102 -14
173 -19 138 -11 223 -34 189 -53 -13 -8 -15 -13 -5 -24 9 -11 5 -17 -24 -29
-37 -15 -177 -15 -486 1 l-134 7 8 -49 c13 -85 22 -248 15 -263 -12 -23 -31
76 -41 204 -4 66 -13 138 -18 159 -5 22 -8 43 -5 47 6 11 -7 39 -18 39 -6 0
-8 -7 -5 -15 4 -8 2 -17 -3 -20 -6 -4 -10 -19 -10 -36 0 -16 -3 -29 -7 -29 -5
0 -8 -35 -9 -78 -1 -50 -7 -91 -18 -117 -10 -23 -18 -62 -17 -90 1 -41 -3 -52
-20 -63 -28 -18 -34 -9 -19 27 10 25 9 38 -3 75 -16 47 -13 58 34 109 20 22
33 136 17 154 -7 9 -7 17 1 27 8 10 9 16 1 21 -17 10 -11 35 8 35 21 0 56 33
45 43 -3 4 -15 7 -25 7 -11 0 -18 7 -18 20 0 11 5 20 11 20 7 0 9 9 5 23 -6
21 -14 122 -16 194 0 17 -5 42 -10 55 -7 17 -9 -5 -8 -81 l3 -104 -45 -25
c-36 -21 -60 -26 -125 -27 -119 -3 -285 -54 -299 -92 -8 -21 81 -6 203 34 57
18 106 31 109 28 18 -17 -41 -39 -179 -66 -124 -24 -172 -39 -246 -75 -61 -29
-93 -50 -93 -60 0 -13 7 -15 33 -11 17 3 59 11 92 17 33 6 107 12 165 14 75 2
116 7 139 19 19 9 39 17 45 17 18 1 66 48 66 64 0 10 6 13 17 9 11 -4 14 -3 9
5 -4 7 2 16 16 23 13 6 32 25 43 42 24 37 42 45 47 20 4 -17 1 -28 -22 -73 -5
-11 -10 -27 -10 -35 0 -9 -6 -15 -12 -13 -7 2 -33 -9 -58 -23 -106 -62 -180
-84 -441 -129 -207 -35 -245 -44 -265 -60 -29 -25 -2 -29 181 -30 125 -1 144
1 185 17 27 11 131 26 168 24 13 0 22 5 22 14 0 8 8 15 18 15 9 0 28 9 42 20
28 22 75 27 66 8 -3 -7 -9 -21 -12 -30 -4 -10 -12 -18 -20 -18 -7 0 -19 -9
-27 -20 -26 -37 -65 -60 -129 -75 -108 -26 -168 -46 -168 -55 0 -5 11 -17 25
-26 26 -17 33 -56 16 -83 -8 -12 -12 -11 -27 4 -16 15 -29 17 -100 11 -46 -3
-95 -11 -109 -16 -14 -6 -56 -10 -93 -10 -37 0 -101 -7 -142 -16 -41 -8 -97
-18 -125 -20 -27 -3 -54 -10 -60 -16 -7 -7 7 -7 45 -2 70 11 159 10 285 -5
103 -12 205 -38 205 -52 0 -12 -68 -28 -120 -28 -25 0 -88 1 -140 2 -53 2
-146 -4 -210 -13 -102 -15 -112 -18 -92 -29 15 -8 69 -12 148 -13 105 0 128 2
144 17 14 12 35 17 71 16 53 -1 79 -13 79 -37 0 -8 5 -14 11 -14 6 0 9 -6 7
-12 -9 -26 -187 -36 -483 -28 -169 4 -195 3 -195 -11 0 -7 -9 -9 -26 -5 l-26
7 22 -31 c23 -32 39 -37 57 -19 8 8 13 5 18 -10 10 -31 63 -71 96 -71 40 0 36
15 -13 51 -53 38 -67 59 -39 59 11 0 23 -5 26 -10 8 -13 77 -44 131 -59 23 -6
89 -11 147 -11 113 0 137 -4 137 -25 0 -23 -107 -47 -210 -48 -147 -1 -209 8
-274 43 -32 16 -66 30 -75 30 -23 0 -41 -20 -41 -46 0 -17 5 -20 25 -16 22 4
28 -1 38 -27 7 -20 19 -31 32 -32 18 -1 18 -2 1 -6 -10 -3 -30 4 -45 14 -14
10 -36 18 -48 17 -17 -1 -23 4 -23 20 0 20 -1 20 -20 -4 -11 -14 -20 -40 -20
-57 0 -27 -4 -33 -21 -33 -11 0 -34 8 -50 17 -25 15 -31 15 -55 3 -23 -13 -27
-13 -40 5 -8 10 -14 31 -14 47 0 37 -17 36 -25 -1 -11 -50 24 -95 102 -132 23
-11 45 -24 48 -29 8 -13 95 -13 95 -1 0 5 -4 21 -9 34 -12 32 11 44 38 20 15
-12 17 -21 11 -39 l-9 -24 729 0 730 0 6 38 c5 32 12 41 52 62 l47 25 -1 60
c0 101 -15 399 -20 423 -2 12 0 22 6 22 5 0 10 -8 11 -17 0 -10 3 -27 6 -38 3
-11 6 -44 7 -74 0 -32 6 -56 13 -58 7 -3 58 7 115 21 142 34 183 42 333 67 72
11 214 36 317 55 103 19 189 34 192 34 3 0 6 175 6 389 l0 389 -50 -19 c-28
-10 -72 -19 -98 -20 -26 0 -69 -5 -97 -10 -27 -5 -99 -16 -160 -24 -60 -7
-126 -18 -145 -23 -19 -6 -71 -13 -115 -17 -121 -9 -317 -43 -329 -56 -8 -9
-8 -10 1 -5 6 3 14 2 18 -4 3 -5 0 -10 -8 -10 -8 0 -17 -14 -21 -31 -3 -18
-10 -28 -16 -24 -6 4 -8 15 -5 26 4 12 -2 29 -14 45 -16 20 -21 40 -20 78 1
47 2 49 9 18 10 -42 30 -65 31 -37 3 87 -4 202 -13 212 -13 16 -13 83 0 148 8
40 7 55 -4 72 -8 12 -14 27 -14 32 0 5 -5 22 -10 37 -8 21 -14 24 -22 16 -17
-17 -25 -15 -31 9 -8 28 -32 19 -31 -12 2 -47 14 -112 23 -123 4 -6 11 -22 13
-36 3 -14 8 -34 12 -45 4 -11 -18 31 -49 93 -89 184 -157 253 -284 292 -52 16
-85 18 -194 14 -73 -2 -148 -6 -167 -9 -19 -3 -53 -6 -75 -6 -38 1 -107 -18
-121 -32 -14 -13 -42 -7 -46 11 -8 29 2 42 35 42 51 0 168 28 216 51 29 13 54
19 72 15 22 -4 29 -2 29 11 0 12 7 14 38 10 57 -10 85 1 78 29 -3 12 -2 24 4
26 9 3 -106 148 -118 148 -4 0 -13 -4 -21 -9z m129 -133 c0 -12 -14 -10 -28 4
-19 19 -14 29 8 16 11 -7 20 -16 20 -20z m-530 -185 c0 -7 -27 -23 -67 -40
-24 -10 -13 12 15 29 29 18 52 23 52 11z m-90 -47 c0 -2 -12 -12 -27 -21 l-28
-18 19 21 c17 20 36 29 36 18z m-77 -87 c7 0 1 -4 -11 -10 -26 -10 -46 -3 -36
12 3 6 13 8 21 5 8 -3 20 -6 26 -7z m-264 -234 c13 -14 19 -25 15 -26 -5 0
-24 -2 -41 -5 -29 -3 -33 -1 -33 19 0 44 23 49 59 12z m1448 -62 c-3 -10 -5
-4 -5 12 0 17 2 24 5 18 2 -7 2 -21 0 -30z m-1262 -32 c-3 -6 -11 -8 -17 -5
-6 4 -5 9 3 15 16 10 23 4 14 -10z m-20 -31 c-3 -5 -10 -10 -16 -10 -5 0 -9 5
-9 10 0 6 7 10 16 10 8 0 12 -4 9 -10z m1159 -431 c-9 -11 -19 -17 -21 -15 -8
7 21 45 30 39 4 -3 1 -14 -9 -24z m-34 -43 c0 -3 -4 -8 -10 -11 -5 -3 -10 -1
-10 4 0 6 5 11 10 11 6 0 10 -2 10 -4z m38 -302 c1 -1 0 -9 -4 -18 -11 -29
-34 -19 -34 15 0 28 2 30 18 18 9 -7 18 -14 20 -15z m22 -94 c5 0 7 -7 4 -15
-11 -27 -24 -16 -23 18 1 17 3 24 6 15 2 -10 8 -18 13 -18z m-725 -290 c3 -5
3 -15 -1 -21 -6 -11 -23 6 -24 24 0 10 18 9 25 -3z m-523 -285 c0 -5 -5 -11
-11 -13 -6 -2 -11 4 -11 13 0 9 5 15 11 13 6 -2 11 -8 11 -13z"/>
<path d="M1920 2253 c-25 -13 -58 -37 -75 -53 -45 -43 -79 -52 -202 -53 -62 0
-113 -1 -113 -3 0 -1 20 -14 44 -28 33 -19 45 -33 48 -54 3 -23 7 -27 33 -24
65 6 82 9 93 16 7 4 12 5 12 1 0 -3 18 4 40 15 22 11 43 20 47 19 21 -3 76 4
61 8 -22 6 -23 17 -3 33 8 7 15 18 15 25 0 7 16 33 35 58 55 72 45 84 -35 40z"/>
<path d="M3602 2226 c-36 -21 -8 -56 45 -56 17 0 35 -4 38 -10 3 -5 35 -10 70
-10 35 0 86 -4 112 -9 26 -6 85 -12 131 -14 l82 -4 0 53 0 53 -142 0 c-79 1
-182 2 -230 4 -49 2 -95 -1 -106 -7z"/>
<path d="M1245 2102 c-48 -39 -32 -78 21 -53 19 8 33 8 59 -4 32 -13 34 -16
24 -39 -12 -25 -7 -56 9 -56 16 0 42 73 31 86 -6 7 -8 22 -4 33 3 11 2 28 -4
38 -8 16 -10 14 -16 -10 -9 -35 -41 -36 -57 -2 -13 29 -35 31 -63 7z"/>
<path d="M2560 2062 c0 -20 113 -32 125 -12 4 6 -13 10 -44 10 -27 0 -56 3
-65 6 -9 3 -16 2 -16 -4z"/>
<path d="M1720 1910 c0 -5 4 -10 9 -10 6 0 13 5 16 10 3 6 -1 10 -9 10 -9 0
-16 -4 -16 -10z"/>
<path d="M2883 1913 c-22 -8 -14 -39 13 -52 53 -24 126 12 77 37 -25 13 -75
22 -90 15z"/>
<path d="M4020 1911 c-26 -15 -101 -21 -290 -25 -219 -5 -256 -10 -263 -38 -5
-19 0 -19 206 -17 117 1 256 -1 310 -4 l97 -6 0 49 c0 45 -2 50 -22 50 -13 0
-30 -4 -38 -9z"/>
<path d="M1296 1879 c-3 -17 -6 -57 -6 -88 0 -101 32 -108 45 -9 13 92 -22
180 -39 97z"/>
<path d="M3378 1833 c12 -2 32 -2 45 0 12 2 2 4 -23 4 -25 0 -35 -2 -22 -4z"/>
<path d="M2110 1809 c0 -5 5 -7 10 -4 6 3 10 8 10 11 0 2 -4 4 -10 4 -5 0 -10
-5 -10 -11z"/>
<path d="M2224 1781 c-32 -21 -88 -70 -124 -109 -82 -89 -90 -99 -90 -111 0
-5 -10 -30 -22 -54 -13 -24 -34 -71 -48 -105 -14 -34 -30 -62 -36 -62 -7 0
-14 -9 -17 -20 -3 -12 -1 -18 5 -14 6 4 8 -7 4 -27 -3 -19 -9 -35 -15 -37 -5
-2 -8 -9 -6 -15 2 -7 0 -37 -4 -67 -7 -43 -10 -50 -16 -32 -4 12 -12 22 -17
22 -5 0 -7 -3 -5 -8 3 -4 7 -27 8 -52 3 -34 0 -45 -11 -46 -44 -3 -51 -5 -46
-13 3 -4 26 -7 51 -5 l45 4 0 -34 c0 -18 -7 -39 -15 -46 -8 -7 -15 -21 -15
-31 0 -19 -74 -99 -91 -99 -5 0 -9 -7 -9 -15 0 -8 -4 -15 -10 -15 -16 0 -12
40 5 46 12 5 13 10 4 20 -13 16 4 44 27 44 23 0 65 23 61 34 -4 13 -96 26
-103 15 -2 -4 -13 -5 -23 -2 -22 6 -28 -10 -29 -76 -1 -24 -7 -51 -15 -60 -18
-20 -30 -81 -17 -81 6 0 10 -7 10 -15 0 -8 -8 -15 -18 -15 -9 0 -22 -10 -27
-22 -6 -14 -18 -22 -30 -21 -29 2 -31 -7 -29 -107 1 -66 -2 -93 -12 -101 -11
-9 -14 -8 -14 5 0 9 -5 16 -10 16 -6 0 -18 15 -27 34 -15 32 -15 42 0 138 18
112 29 263 20 272 -5 5 -43 -36 -43 -48 0 -9 -33 -46 -41 -46 -4 0 -10 7 -13
15 -6 16 31 107 46 113 16 7 8 22 -12 22 -17 0 -20 7 -20 40 0 45 3 46 55 24
27 -11 44 -12 63 -5 16 5 20 10 10 10 -11 1 -15 7 -11 20 3 10 0 22 -6 25 -6
4 -11 0 -11 -11 0 -15 -2 -16 -10 -3 -8 12 -10 12 -16 -3 -9 -26 -22 -11 -17
20 l4 28 -17 -22 c-9 -13 -24 -23 -34 -23 -20 0 -30 -19 -30 -59 0 -15 -7 -36
-15 -47 -8 -10 -15 -29 -15 -42 0 -12 -6 -33 -14 -45 -9 -14 -13 -45 -12 -84
1 -36 -3 -64 -8 -66 -6 -2 -11 -17 -12 -33 -3 -48 -22 -84 -44 -84 -11 0 -19
3 -19 8 5 30 -5 31 -21 2 -11 -19 -19 -54 -20 -77 0 -61 -17 -53 -22 9 -2 29
-12 71 -22 93 -10 22 -22 49 -27 60 -31 68 -64 336 -40 321 5 -3 14 0 20 7 8
10 7 19 -4 33 -19 25 -19 34 0 34 8 0 17 11 21 25 3 14 10 25 15 25 4 0 15 22
23 49 8 27 20 59 26 71 19 35 40 128 40 175 0 26 5 45 13 48 9 3 9 7 -2 20 -8
11 -13 39 -12 74 1 55 1 56 -19 38 -11 -10 -20 -23 -20 -29 0 -5 -12 -22 -26
-37 -18 -19 -28 -43 -34 -89 -6 -39 -18 -76 -34 -99 -14 -20 -26 -44 -26 -52
0 -7 -6 -26 -13 -40 -8 -14 -17 -45 -21 -70 -4 -24 -11 -57 -16 -74 -54 -183
-63 -419 -21 -570 7 -22 13 -53 15 -70 3 -26 0 -30 -21 -32 -18 -1 -22 2 -14
10 17 17 13 27 -9 27 -11 0 -20 5 -20 11 0 7 -16 36 -35 65 -19 29 -47 75 -61
103 -23 47 -48 71 -73 71 -7 0 -8 -6 -2 -17 8 -16 27 -64 51 -128 31 -85 38
-135 19 -135 -6 0 -9 7 -5 15 3 8 1 15 -4 15 -13 0 -55 48 -55 62 0 6 -6 13
-12 16 -8 2 -13 -6 -13 -22 0 -14 -4 -26 -10 -26 -5 0 -10 -12 -11 -27 l-1
-28 -7 25 c-14 45 -20 339 -11 482 6 83 6 146 0 160 -8 20 -9 19 -9 -14 -1
-37 -25 -73 -42 -63 -5 4 -7 -14 -4 -42 5 -47 5 -48 -9 -18 -7 17 -19 75 -26
130 -7 55 -16 111 -20 125 -6 22 -8 18 -15 -25 -5 -32 -2 -103 8 -200 9 -82
14 -169 10 -192 -4 -29 -2 -43 6 -43 15 0 15 -136 0 -146 -13 -8 -27 11 -36
49 -3 15 -9 27 -13 27 -4 0 -15 29 -25 65 -11 36 -23 65 -27 65 -13 0 -10 -25
18 -133 28 -111 41 -210 21 -169 -5 12 -14 22 -19 22 -4 0 -8 16 -8 35 0 19
-5 35 -11 35 -12 0 -8 -38 6 -75 7 -16 6 -18 -6 -8 -24 23 -28 14 -24 -48 6
-69 -7 -130 -31 -150 -13 -10 -17 -10 -23 0 -5 7 -17 11 -27 9 -16 -3 -18 -11
-16 -50 2 -26 -1 -49 -8 -53 -6 -4 -8 -16 -5 -28 5 -19 5 -20 -5 -4 -6 9 -18
17 -26 17 -8 0 -40 13 -71 30 -57 31 -118 40 -111 18 3 -7 18 -15 35 -19 36
-7 105 -75 101 -98 -2 -9 -13 -16 -27 -16 -14 0 -26 -6 -29 -13 -4 -13 37 -32
72 -32 24 0 76 -35 76 -51 0 -5 -9 -9 -20 -9 -11 0 -20 7 -20 15 0 11 -13 15
-54 15 -29 0 -73 7 -97 16 -49 17 -151 11 -167 -9 -5 -7 -12 -33 -15 -59 l-7
-48 45 0 c26 0 58 8 78 20 33 20 94 36 169 47 29 4 38 2 38 -10 0 -8 14 -20
30 -27 16 -7 30 -16 30 -21 0 -5 11 -9 24 -9 26 0 36 21 36 83 0 63 34 44 65
-36 17 -46 19 -47 61 -47 l43 0 -14 43 c-8 23 -20 62 -27 87 -15 53 -43 65
-58 26 -12 -31 -26 -33 -35 -5 -4 12 -12 18 -21 15 -10 -4 -14 3 -14 23 0 24
9 35 44 57 25 16 50 39 55 52 27 58 3 49 -77 -27 -30 -28 -58 -48 -63 -45 -12
7 70 94 88 94 7 0 13 4 13 9 0 11 49 30 105 42 22 4 58 12 80 17 51 11 308 7
331 -6 13 -7 11 -10 -15 -15 -23 -5 -31 -12 -31 -28 0 -12 -6 -27 -14 -33 -13
-11 -31 -66 -22 -66 3 0 29 9 58 21 51 20 179 48 226 49 12 0 22 -4 22 -10 0
-5 -8 -10 -17 -10 -25 -1 -115 -52 -124 -70 -6 -14 -31 -116 -44 -187 l-7 -33
56 0 c42 0 56 4 56 14 0 8 -5 16 -12 18 -17 6 -19 83 -3 135 19 64 40 83 90
83 37 0 48 6 96 54 64 63 105 86 140 79 16 -3 32 1 42 11 8 9 25 16 37 16 11
0 24 8 27 18 4 9 17 31 30 48 13 17 23 36 23 42 0 25 81 164 109 188 16 13 33
34 36 44 4 11 16 23 28 26 21 5 137 161 137 183 0 6 3 11 8 11 4 0 39 29 77
65 39 35 76 64 83 65 6 0 12 5 12 10 0 6 6 10 14 8 14 -3 185 101 221 135 11
11 44 34 73 53 51 33 71 58 58 72 -8 7 -100 -41 -132 -69 -11 -11 -24 -19 -28
-19 -4 0 -22 -11 -39 -24 -18 -13 -68 -45 -112 -71 -95 -56 -207 -162 -240
-226 -13 -25 -31 -51 -39 -58 -14 -12 -16 -11 -16 7 0 11 7 25 15 32 8 7 15
18 15 26 0 18 85 176 131 245 36 53 116 137 175 182 15 12 35 29 43 37 25 24
128 90 140 90 6 0 11 5 11 10 0 40 -106 -25 -248 -152 -99 -89 -125 -119 -173
-198 -30 -52 -61 -96 -69 -98 -9 -3 -11 1 -7 12 4 9 10 22 13 30 4 11 0 13
-15 9 -20 -5 -21 -2 -15 43 8 56 12 64 23 45 6 -9 15 -2 32 28 14 25 28 40 36
37 7 -3 13 -1 13 5 0 6 16 25 35 43 19 19 35 37 35 41 0 4 -16 -5 -35 -19 -19
-15 -35 -25 -35 -22 0 5 33 63 80 144 14 23 30 42 37 42 7 0 17 9 23 20 6 11
23 26 38 34 40 20 138 113 130 122 -5 4 -16 0 -26 -9 -10 -10 -22 -17 -25 -17
-17 0 -217 -189 -217 -204 0 -5 -10 -23 -23 -40 -13 -17 -41 -67 -62 -111 -41
-85 -60 -83 -30 3 9 26 19 65 21 86 11 82 65 164 188 284 64 63 116 115 116
118 0 13 -33 -1 -86 -35z m-414 -1027 c0 -8 -2 -14 -4 -14 -2 0 -11 -3 -20 -6
-9 -3 -16 -1 -16 6 0 6 5 8 10 5 6 -3 10 3 10 15 0 12 5 18 10 15 6 -3 10 -13
10 -21z m-343 -256 c-3 -8 -6 -5 -6 6 -1 11 2 17 5 13 3 -3 4 -12 1 -19z
m-871 -405 c-7 -7 -26 7 -26 19 0 6 6 6 15 -2 9 -7 13 -15 11 -17z"/>
<path d="M2588 1804 c-12 -12 2 -24 28 -24 24 0 83 -28 152 -71 62 -40 31 -4
-38 44 -67 46 -126 67 -142 51z"/>
<path d="M2460 1774 c-17 -10 -20 -14 -8 -14 23 0 48 11 48 21 0 12 -9 10 -40
-7z"/>
<path d="M2520 1740 c0 -5 7 -10 15 -10 8 0 15 5 15 10 0 6 -7 10 -15 10 -8 0
-15 -4 -15 -10z"/>
<path d="M2430 1685 c-111 -105 -200 -197 -200 -207 0 -13 19 2 112 89 36 35
70 63 75 63 15 0 56 61 47 70 -5 5 -20 -2 -34 -15z"/>
<path d="M2817 1674 c3 -7 9 -14 14 -14 5 0 9 -9 9 -20 0 -10 9 -24 20 -30 18
-10 18 -9 -2 29 -20 39 -53 66 -41 35z"/>
<path d="M2881 1574 c0 -11 3 -14 6 -6 3 7 2 16 -1 19 -3 4 -6 -2 -5 -13z"/>
<path d="M960 1556 c0 -9 5 -16 10 -16 6 0 10 4 10 9 0 6 -4 13 -10 16 -5 3
-10 -1 -10 -9z"/>
<path d="M1051 1531 c-27 -7 -41 -31 -19 -31 17 0 55 26 48 33 -3 2 -16 1 -29
-2z"/>
<path d="M857 1412 c-16 -42 -33 -85 -38 -94 -21 -41 -4 -84 30 -73 16 5 20
12 16 25 -3 11 2 32 12 47 17 27 17 27 0 14 -14 -11 -20 -12 -30 -2 -9 10 -7
16 11 31 12 10 22 21 22 25 0 4 10 15 23 25 18 15 20 21 10 31 -7 7 -13 21
-13 31 0 37 -16 15 -43 -60z"/>
<path d="M2175 1430 c-10 -11 -16 -23 -13 -26 7 -6 38 24 38 37 0 13 -5 11
-25 -11z"/>
<path d="M1 1373 c1 -44 3 -52 9 -33 12 36 12 90 0 90 -6 0 -10 -25 -9 -57z"/>
<path d="M2854 1420 c-31 -12 -39 -30 -15 -30 11 0 23 -4 26 -10 9 -15 25 -12
25 5 0 8 5 15 10 15 6 0 10 7 10 15 0 16 -23 19 -56 5z"/>
<path d="M1525 1383 l-17 -28 23 22 c12 12 20 25 17 28 -3 3 -13 -7 -23 -22z"/>
<path d="M2720 1380 c0 -22 -20 -26 -38 -8 -10 10 -16 7 -28 -10 -8 -12 -19
-22 -24 -22 -5 0 -44 -24 -87 -53 -43 -30 -114 -73 -158 -97 -44 -23 -91 -50
-105 -60 -14 -9 -41 -23 -60 -30 -19 -8 -52 -26 -72 -40 -42 -31 -95 -90 -80
-90 6 0 55 22 109 49 54 27 118 55 143 62 25 7 55 19 67 26 15 10 23 11 28 3
8 -13 35 6 35 25 0 19 81 84 119 96 152 45 259 128 191 146 -11 3 -20 9 -20
14 0 5 -4 9 -10 9 -5 0 -10 -9 -10 -20z"/>
<path d="M1540 1315 c0 -15 4 -24 10 -20 6 3 10 12 10 20 0 8 -4 17 -10 20 -6
4 -10 -5 -10 -20z"/>
<path d="M2201 1284 c-12 -14 -20 -28 -17 -32 3 -3 7 -3 9 -1 1 2 13 16 26 32
14 15 20 27 15 27 -6 0 -21 -12 -33 -26z"/>
<path d="M1592 1288 c-7 -7 -12 -17 -12 -23 0 -6 -11 -35 -25 -63 -14 -29 -25
-57 -25 -63 0 -7 -8 -18 -17 -26 -16 -13 -15 -14 10 -8 22 4 29 1 36 -17 7
-18 8 -11 8 27 -1 32 7 68 20 95 37 80 39 112 5 78z"/>
<path d="M2150 1231 c0 -12 29 -23 42 -15 6 4 5 10 -3 15 -18 11 -39 11 -39 0z"/>
<path d="M2131 1184 c-12 -14 -21 -28 -19 -30 5 -4 58 41 58 50 0 14 -18 5
-39 -20z"/>
<path d="M1750 1184 c0 -5 -20 -33 -45 -61 -26 -30 -41 -54 -35 -58 6 -4 7
-12 3 -18 -4 -7 0 -6 10 2 9 7 14 17 11 22 -7 12 26 60 37 53 5 -3 3 -13 -3
-24 -14 -22 3 -70 24 -70 10 0 10 2 0 9 -10 6 -7 12 13 25 18 12 25 24 22 37
-3 10 -1 22 4 25 21 13 7 26 -21 20 -28 -5 -30 -4 -19 15 6 11 8 23 5 27 -3 3
-6 1 -6 -4z"/>
<path d="M1797 1178 c6 -11 43 -10 43 1 0 5 -11 8 -24 7 -13 0 -22 -4 -19 -8z"/>
<path d="M712 1115 c0 -16 2 -22 5 -12 2 9 2 23 0 30 -3 6 -5 -1 -5 -18z"/>
<path d="M2080 1125 c0 -8 2 -15 4 -15 2 0 6 7 10 15 3 8 1 15 -4 15 -6 0 -10
-7 -10 -15z"/>
<path d="M1610 884 c-46 -33 -65 -52 -58 -59 15 -15 118 50 118 74 0 17 -22
12 -60 -15z"/>
<path d="M2047 764 c-4 -4 -4 -10 -1 -15 6 -10 34 0 34 12 0 10 -24 12 -33 3z"/>
<path d="M2275 763 c-16 -2 -75 -12 -130 -23 -55 -10 -117 -21 -138 -24 -42
-5 -97 -40 -97 -61 0 -11 8 -11 36 -3 20 5 69 7 109 4 60 -5 88 -2 166 20 52
14 109 29 127 31 25 4 32 10 32 28 0 15 -8 25 -22 29 -24 6 -31 6 -83 -1z"/>
<path d="M1837 670 c-43 -57 -34 -67 12 -15 25 29 41 65 28 65 -1 0 -20 -22
-40 -50z"/>
<path d="M207 632 c-4 -6 -13 -10 -20 -8 -7 1 -9 1 -4 -1 13 -8 8 -33 -7 -33
-8 0 -16 -6 -19 -12 -3 -10 -9 -10 -26 0 -22 13 -54 4 -51 -14 1 -5 -4 -26
-11 -46 -14 -44 -38 -52 -32 -10 3 23 1 22 -17 -12 -22 -43 -30 -176 -10 -176
6 0 10 8 10 17 0 14 2 15 13 4 10 -10 8 -16 -10 -31 -20 -16 -21 -19 -7 -30
12 -11 16 -8 27 19 6 17 16 31 22 31 6 0 24 19 39 42 23 36 27 51 23 88 -4 33
-1 48 12 60 33 30 83 100 79 112 -3 9 -6 9 -11 0z m-97 -161 c0 -6 -4 -13 -10
-16 -5 -3 -10 1 -10 9 0 9 5 16 10 16 6 0 10 -4 10 -9z m-33 -21 c-1 -12 -5
-16 -10 -11 -5 5 -6 14 -3 20 11 16 15 13 13 -9z"/>
<path d="M1725 420 c27 -12 43 -12 25 0 -8 5 -22 9 -30 9 -10 0 -8 -3 5 -9z"/>
<path d="M1080 203 c-14 -2 -51 -9 -82 -15 -49 -10 -57 -15 -54 -32 2 -12 9
-20 15 -19 5 2 8 -4 5 -12 -4 -8 -13 -15 -21 -15 -8 0 -11 5 -7 13 4 7 3 9 -2
4 -5 -5 -9 -12 -9 -15 0 -4 -9 -20 -20 -37 -11 -16 -20 -39 -20 -52 -1 -22 2
-23 77 -23 77 0 78 0 78 26 0 14 4 23 9 20 10 -6 33 17 29 30 -1 5 6 27 15 48
23 52 31 86 21 85 -5 -1 -20 -3 -34 -6z"/>
<path d="M114 189 c-3 -6 -4 -11 -3 -12 2 -1 14 -8 26 -14 28 -16 56 -17 51
-2 -6 17 -66 40 -74 28z"/>
<path d="M772 80 c0 -14 2 -19 5 -12 2 6 2 18 0 25 -3 6 -5 1 -5 -13z"/>
<path d="M265 15 l-40 -14 58 2 c31 1 58 7 60 12 3 15 -33 15 -78 0z"/>
<path d="M1260 10 c0 -5 5 -10 11 -10 5 0 7 5 4 10 -3 6 -8 10 -11 10 -2 0 -4
-4 -4 -10z"/>
</g>
</svg>
